# xmcd CD database file
#
# Track frame offsets:
#	150
#	20536
#	41542
#	62356
#	85702
#	105944
#	131433
#	153471
#	174498
#	196031
#	218626
#	237763
#	258579
#	279984
#	298312
#
# Disc length: 4281 seconds
#
# Revision: 0
# Processed by: cddbd v1.5.2PL0 Copyright (c) Steve Scherf et al.
# Submitted via: CDex 1.51
#
DISCID=c310b70f
DTITLE=Varios Intérpretes - Pura Salsa Disco  2
DYEAR=2010
DGENRE=Salsa
TTITLE0=Quiero Llenarte - Frankie Ruiz
TTITLE1=Ese Hombre - India
TTITLE2=Le Gusta que la Vean - Tito Nieves
TTITLE3=En Defensa Propia - Alex D'Castro
TTITLE4=Te Voy a Enseñar - Andy Montañez
TTITLE5=Yo no Soy un Ángel - Cheo Feliciano
TTITLE6=Todo Empezó - Eddie Santiago
TTITLE7=No Juegues Más (Con Mi Amor) - Edgar Joel
TTITLE8=Un Buen Perdedor - Héctor Tricoche
TTITLE9=Cómo Fui a Enamorarme de Ti - Johnny Rivera
TTITLE10=Mi Princesa - Michael Stuart
TTITLE11=25 Rosas - Paquito Guzmán
TTITLE12=Cada Minuto - Ray Sepúlveda
TTITLE13=Cómo Lo Hacen -  Tommy Olivencia
TTITLE14=Aparentemente - Tony Vega
EXTD=YEAR: 2010
EXTT0=
EXTT1=
EXTT2=
EXTT3=
EXTT4=
EXTT5=
EXTT6=
EXTT7=
EXTT8=
EXTT9=
EXTT10=
EXTT11=
EXTT12=
EXTT13=
EXTT14=
PLAYORDER=
